<?xml version="1.0" encoding="UTF-8"?>
<svg width="18px" height="18px" viewBox="0 0 18 18" version="1.1" xmlns="http://www.w3.org/2000/svg" xmlns:xlink="http://www.w3.org/1999/xlink">
    <!-- Generator: Sketch 50.2 (55047) - http://www.bohemiancoding.com/sketch -->
    <title>ic/big_cross</title>
    <desc>Created with Sketch.</desc>
    <defs></defs>
    <g id="Page-1" stroke="none" stroke-width="1" fill="none" fill-rule="evenodd">
        <g id="Main-mock-up" transform="translate(-671.000000, -343.000000)">
            <g id="Left-part" transform="translate(135.000000, 235.000000)">
                <g id="ic/big_cross" transform="translate(530.000000, 102.000000)">
                    <rect id="canvas" x="0" y="0" width="30" height="30"></rect>
                    <path d="M22.4246212,6.86827202 L15,14.2928932 L7.5753788,6.86827202 C7.38011665,6.67300987 7.06353416,6.67300987 6.86827202,6.86827202 C6.67300987,7.06353416 6.67300987,7.38011665 6.86827202,7.5753788 L14.2928932,15 L6.86827202,22.4246212 C6.67300987,22.6198833 6.67300987,22.9364658 6.86827202,23.131728 C7.06353416,23.3269901 7.38011665,23.3269901 7.5753788,23.131728 L15,15.7071068 L22.4246212,23.131728 C22.6198833,23.3269901 22.9364658,23.3269901 23.131728,23.131728 C23.3269901,22.9364658 23.3269901,22.6198833 23.131728,22.4246212 L15.7071068,15 L23.131728,7.5753788 C23.3269901,7.38011665 23.3269901,7.06353416 23.131728,6.86827202 C22.9364658,6.67300987 22.6198833,6.67300987 22.4246212,6.86827202 Z" id="cross" stroke="#333333" fill="#333333"></path>
                </g>
            </g>
        </g>
    </g>
</svg>