<?xml version="1.0" encoding="UTF-8"?>
<svg width="19px" height="22px" viewBox="0 0 19 22" version="1.1" xmlns="http://www.w3.org/2000/svg" xmlns:xlink="http://www.w3.org/1999/xlink">
    <!-- Generator: Sketch 50.2 (55047) - http://www.bohemiancoding.com/sketch -->
    <title>ic/content_copy</title>
    <desc>Created with Sketch.</desc>
    <defs></defs>
    <g id="Page-1" stroke="none" stroke-width="1" fill="none" fill-rule="evenodd">
        <g id="Main-mock-up" transform="translate(-761.000000, -482.000000)">
            <g id="Right-part" transform="translate(735.000000, 235.000000)">
                <g id="Copy" transform="translate(24.000000, 246.000000)">
                    <g id="ic/content_copy">
                        <polygon id="Bounds" points="0 0 25 0 25 25 0 25"></polygon>
                        <path d="M16,1 L4,1 C2.9,1 2,1.9 2,3 L2,17 L4,17 L4,3 L16,3 L16,1 L16,1 Z M19,5 L8,5 C6.9,5 6,5.9 6,7 L6,21 C6,22.1 6.9,23 8,23 L19,23 C20.1,23 21,22.1 21,21 L21,7 C21,5.9 20.1,5 19,5 L19,5 Z M19,21 L8,21 L8,7 L19,7 L19,21 L19,21 Z" id="Icon" fill="#1A191D"></path>
                    </g>
                </g>
            </g>
        </g>
    </g>
</svg>